<?xml version="1.0" encoding="iso-8859-1"?>
<!-- Generator: Adobe Illustrator 19.0.0, SVG Export Plug-In . SVG Version: 6.00 Build 0)  -->
<svg version="1.1" id="Capa_1" xmlns="http://www.w3.org/2000/svg" xmlns:xlink="http://www.w3.org/1999/xlink" x="0px" y="0px"
	 viewBox="0 0 512 512" style="enable-background:new 0 0 512 512;" xml:space="preserve">
<g>
	<path style="fill:#AFD755;" d="M298,219.629c0-25.227-20.523-45.75-45.75-45.75c-11.359,0-21.742,4.187-29.75,11.065v-13.315
		c0-16.402,13.344-29.75,29.75-29.75c6.719,0,13.055,2.184,18.336,6.316c3.477,2.719,8.5,2.105,11.227-1.371
		c2.727-3.48,2.109-8.508-1.367-11.23c-8.125-6.355-17.875-9.715-28.195-9.715c-25.227,0-45.75,20.523-45.75,45.75v48v4.5
		c0,25.227,20.523,45.75,45.75,45.75S298,249.355,298,224.129V219.629z M282,224.129c0,16.402-13.344,29.75-29.75,29.75
		s-29.75-13.348-29.75-29.75v-4.5c0-16.402,13.344-29.75,29.75-29.75S282,203.227,282,219.629V224.129z"/>
	<path style="fill:#AFD755;" d="M133.336,145.949c2.93-2.625,6.719-4.07,10.664-4.07c8.82,0,16,7.176,16,16s-7.18,16-16,16
		c-4.422,0-8,3.582-8,8s3.578,8,8,8c17.648,0,32,14.355,32,32s-14.352,32-32,32c-10.164,0-19.508-4.672-25.617-12.82
		c-2.648-3.527-7.648-4.25-11.203-1.598c-3.531,2.652-4.25,7.664-1.594,11.199c9.164,12.215,23.164,19.219,38.414,19.219
		c26.469,0,48-21.531,48-48c0-18.051-10.016-33.805-24.781-42c5.438-5.738,8.781-13.488,8.781-22c0-17.645-14.352-32-32-32
		c-7.891,0-15.469,2.895-21.336,8.156c-3.297,2.945-3.57,8.004-0.625,11.297C125,148.621,130.055,148.898,133.336,145.949z"/>
	<path style="fill:#AFD755;" d="M400,169.879c0-24.262-19.742-44-44-44s-44,19.738-44,44v56c0,24.262,19.742,44,44,44
		s44-19.738,44-44V169.879z M384,225.879c0,15.438-12.563,28-28,28s-28-12.563-28-28v-56c0-15.438,12.563-28,28-28s28,12.563,28,28
		V225.879z"/>
</g>
<path style="fill:#BEE86E;" d="M420,133.879c15.438,0,28-12.563,28-28s-12.563-28-28-28s-28,12.563-28,28
	S404.563,133.879,420,133.879z M420,93.879c6.617,0,12,5.383,12,12s-5.383,12-12,12s-12-5.383-12-12S413.383,93.879,420,93.879z"/>
<path style="fill:#C0BCC1;" d="M268.586,400.703l-47.453-25.832c-3.898-2.117-8.75-0.676-10.852,3.203
	c-2.117,3.879-0.68,8.738,3.195,10.852l14.95,8.137C109.037,390.199,16,339.382,16,277.879c0-37.762,36.922-73.918,98.766-96.715
	c4.148-1.531,6.266-6.129,4.742-10.273c-1.539-4.152-6.133-6.27-10.273-4.742C40.836,191.367,0,233.133,0,277.879
	C0,348.859,97.431,405.5,226.674,413.006l-15.439,5.587c-4.156,1.504-6.305,6.09-4.805,10.246c1.18,3.254,4.25,5.281,7.523,5.281
	c0.906,0,1.82-0.156,2.719-0.48l50.805-18.387c2.961-1.07,5.023-3.781,5.258-6.918C272.977,405.195,271.344,402.211,268.586,400.703
	z"/>
<g>
	<path style="fill:#DBD9DC;" d="M499.609,303.109c-3.938-1.984-8.75-0.406-10.75,3.531c-1.078,2.137-2.266,4.246-3.57,6.332
		c-2.336,3.75-1.195,8.684,2.555,11.023c1.32,0.82,2.781,1.211,4.227,1.211c2.672,0,5.281-1.336,6.797-3.766
		c1.555-2.5,2.977-5.023,4.273-7.582C505.133,309.918,503.555,305.105,499.609,303.109z"/>
	<path style="fill:#DBD9DC;" d="M461.336,339.48c-4.016,3.316-8.414,6.586-13.078,9.715c-3.664,2.461-4.641,7.434-2.18,11.102
		c1.547,2.297,4.07,3.539,6.648,3.539c1.531,0,3.086-0.438,4.453-1.359c5.094-3.422,9.922-7.008,14.344-10.66
		c3.406-2.813,3.891-7.855,1.078-11.262C469.789,337.156,464.758,336.668,461.336,339.48z"/>
	<path style="fill:#DBD9DC;" d="M415.766,367.035c-4.945,2.227-10.07,4.355-15.352,6.367c-4.125,1.574-6.195,6.199-4.625,10.328
		c1.219,3.188,4.258,5.152,7.477,5.152c0.945,0,1.914-0.172,2.852-0.527c5.578-2.129,10.984-4.375,16.211-6.727
		c4.031-1.816,5.828-6.551,4.016-10.582C424.531,367.027,419.789,365.219,415.766,367.035z"/>
	<path style="fill:#DBD9DC;" d="M364.617,384.73c-5.32,1.371-10.758,2.645-16.297,3.816c-4.328,0.914-7.094,5.156-6.18,9.48
		c0.797,3.766,4.117,6.348,7.82,6.348c0.547,0,1.102-0.055,1.656-0.172c5.789-1.219,11.445-2.547,17-3.98
		c4.273-1.102,6.852-5.465,5.75-9.742C373.258,386.203,368.922,383.656,364.617,384.73z"/>
	<path style="fill:#DBD9DC;" d="M311.008,394.664c-2.586,0.309-5.188,0.598-7.813,0.859c-4.391,0.445-7.602,4.367-7.156,8.766
		c0.414,4.121,3.891,7.195,7.953,7.195c0.266,0,0.539-0.012,0.813-0.039c2.719-0.277,5.43-0.574,8.109-0.898
		c4.391-0.527,7.516-4.508,6.992-8.895C319.375,397.273,315.445,394.117,311.008,394.664z"/>
</g>
<path style="fill:#C0BCC1;" d="M427.422,176.488c-4.008-1.898-8.758-0.195-10.664,3.793c-1.898,3.988-0.195,8.762,3.789,10.66
	C468.5,213.738,496,245.426,496,277.879c0,4.418,3.578,8,8,8s8-3.582,8-8C512,239.004,481.172,202.047,427.422,176.488z"/>
<g>
	<path style="fill:#91C85F;" d="M252.25,173.879c-11.359,0-21.742,4.187-29.75,11.065v-3.065c0-4.418-3.578-8-8-8s-8,3.582-8,8
		v42.25c0,25.227,20.523,45.75,45.75,45.75S298,249.355,298,224.129v-4.5C298,194.402,277.477,173.879,252.25,173.879z M282,224.129
		c0,16.402-13.344,29.75-29.75,29.75s-29.75-13.348-29.75-29.75v-4.5c0-16.402,13.344-29.75,29.75-29.75S282,203.227,282,219.629
		V224.129z"/>
	<path style="fill:#91C85F;" d="M144,173.879c-4.422,0-8,3.582-8,8s3.578,8,8,8c17.648,0,32,14.355,32,32s-14.352,32-32,32
		c-10.164,0-19.508-4.672-25.617-12.82c-2.648-3.527-7.648-4.25-11.203-1.598c-3.531,2.652-4.25,7.664-1.594,11.199
		c9.164,12.215,23.164,19.219,38.414,19.219c26.469,0,48-21.531,48-48S170.469,173.879,144,173.879z"/>
	<path style="fill:#91C85F;" d="M392,173.879c-4.422,0-8,3.582-8,8v44c0,15.438-12.563,28-28,28s-28-12.563-28-28v-44
		c0-4.418-3.578-8-8-8s-8,3.582-8,8v44c0,24.262,19.742,44,44,44s44-19.738,44-44v-44C400,177.461,396.422,173.879,392,173.879z"/>
</g>
<path style="fill:#9C969E;" d="M268.586,400.703l-47.453-25.832c-3.898-2.117-8.75-0.676-10.852,3.203
	c-2.117,3.879-0.68,8.738,3.195,10.852l14.808,8.06c-41.198-2.396-80.242-10.036-114.159-22.622
	c-4.133-1.539-8.742,0.578-10.281,4.715c-1.539,4.145,0.57,8.746,4.719,10.285c35.256,13.086,75.725,21.041,118.334,23.563
	l-15.662,5.668c-4.156,1.504-6.305,6.09-4.805,10.246c1.18,3.254,4.25,5.281,7.523,5.281c0.906,0,1.82-0.156,2.719-0.48
	l50.805-18.387c2.961-1.07,5.023-3.781,5.258-6.918C272.977,405.195,271.344,402.211,268.586,400.703z"/>
<g>
</g>
<g>
</g>
<g>
</g>
<g>
</g>
<g>
</g>
<g>
</g>
<g>
</g>
<g>
</g>
<g>
</g>
<g>
</g>
<g>
</g>
<g>
</g>
<g>
</g>
<g>
</g>
<g>
</g>
</svg>
