<?xml version="1.0" encoding="iso-8859-1"?>
<!-- Generator: Adobe Illustrator 19.0.0, SVG Export Plug-In . SVG Version: 6.00 Build 0)  -->
<svg version="1.1" id="Capa_1" xmlns="http://www.w3.org/2000/svg" xmlns:xlink="http://www.w3.org/1999/xlink" x="0px" y="0px"
	 viewBox="0 0 512 512" style="enable-background:new 0 0 512 512;" xml:space="preserve">
<path style="fill:#44C1DD;" d="M388.046,409.972l-32.806-39.11c-0.95-1.133-2.353-1.787-3.831-1.787H61.479c-2.761,0-5,2.239-5,5
	v39.11v39.11c0,2.761,2.239,5,5,5h289.929c1.478,0,2.881-0.654,3.831-1.787l32.806-39.11
	C389.605,414.54,389.605,411.83,388.046,409.972z"/>
<path style="fill:#FFE1A0;" d="M472.051,293.544l-32.806-39.11c-0.95-1.133-2.353-1.787-3.831-1.787H61.479c-2.761,0-5,2.239-5,5
	v39.11v39.11c0,2.761,2.239,5,5,5h373.934c1.478,0,2.881-0.654,3.831-1.787l32.806-39.11
	C473.61,298.113,473.61,295.402,472.051,293.544z"/>
<path style="fill:#38C96C;" d="M298.976,177.116l-32.806-39.11c-0.95-1.133-2.353-1.787-3.831-1.787H61.479c-2.761,0-5,2.239-5,5
	v39.11v39.11c0,2.761,2.239,5,5,5h200.86c1.478,0,2.881-0.654,3.831-1.787l32.806-39.11
	C300.535,181.684,300.535,178.975,298.976,177.116z"/>
<path style="fill:#F16645;" d="M388.049,60.688l-32.806-39.11c-0.95-1.133-2.353-1.787-3.831-1.787H61.479c-2.761,0-5,2.239-5,5
	v39.11v39.11c0,2.761,2.239,5,5,5h289.933c1.478,0,2.881-0.654,3.831-1.787l32.806-39.11
	C389.608,65.257,389.608,62.548,388.049,60.688z"/>
<path style="fill:#37B0C4;" d="M388.045,416.395l-32.802,39.113c-0.95,1.13-2.35,1.79-3.83,1.79h-62.395v-0.09
	c1.12-0.22,2.14-0.81,2.89-1.7l32.802-39.113c1.56-1.86,1.56-4.57,0-6.43l-32.802-39.103c-0.75-0.89-1.77-1.49-2.89-1.69v-0.1
	h62.395c1.48,0,2.88,0.65,3.83,1.79l32.802,39.103C389.605,411.825,389.605,414.535,388.045,416.395z"/>
<path style="fill:#2BAA55;" d="M298.975,183.54l-32.802,39.113c-0.95,1.13-2.35,1.79-3.83,1.79h-62.395v-0.09
	c1.12-0.22,2.14-0.81,2.89-1.7l32.802-39.113c1.56-1.86,1.56-4.57,0-6.43l-32.802-39.103c-0.75-0.89-1.77-1.49-2.89-1.69v-0.1
	h62.395c1.48,0,2.88,0.65,3.83,1.79l32.802,39.103C300.535,178.97,300.535,181.68,298.975,183.54z"/>
<path style="fill:#EFCC86;" d="M472.05,299.968l-32.802,39.113c-0.95,1.13-2.35,1.79-3.83,1.79h-62.395v-0.09
	c1.12-0.22,2.14-0.81,2.89-1.7l32.802-39.113c1.56-1.86,1.56-4.57,0-6.43l-32.802-39.103c-0.75-0.89-1.77-1.49-2.89-1.69v-0.1
	h62.395c1.48,0,2.88,0.65,3.83,1.79l32.802,39.103C473.61,295.397,473.61,298.108,472.05,299.968z"/>
<path style="fill:#EB5836;" d="M388.048,67.115l-32.802,39.113c-0.95,1.13-2.35,1.79-3.83,1.79h-62.395v-0.09
	c1.12-0.22,2.14-0.81,2.89-1.7l32.802-39.113c1.56-1.86,1.56-4.57,0-6.43l-32.802-39.103c-0.75-0.89-1.77-1.49-2.89-1.69v-0.1
	h62.395c1.48,0,2.88,0.65,3.83,1.79l32.802,39.103C389.608,62.545,389.608,65.255,388.048,67.115z"/>
<path style="fill:#2D2D2D;" d="M504.499,496.976H431.34v-12.335c0-4.143-3.357-7.501-7.501-7.501s-7.501,3.357-7.501,7.501v12.335
	h-76.839v-12.335c0-4.143-3.357-7.501-7.501-7.501s-7.501,3.357-7.501,7.501v12.335h-76.839v-12.335
	c0-4.143-3.358-7.501-7.501-7.501s-7.501,3.357-7.501,7.501v12.335h-76.839v-12.335c0-4.143-3.358-7.501-7.501-7.501
	c-4.142,0-7.501,3.357-7.501,7.501v12.335h-76.84v-12.335c0-4.143-3.358-7.501-7.501-7.501s-7.501,3.357-7.501,7.501v12.335H15.001
	V7.524c0-4.143-3.358-7.501-7.501-7.501S0,3.38,0,7.524v496.953c0,4.143,3.358,7.501,7.501,7.501h496.999
	c4.143,0,7.501-3.357,7.501-7.501S508.642,496.976,504.499,496.976z"/>
<g>
</g>
<g>
</g>
<g>
</g>
<g>
</g>
<g>
</g>
<g>
</g>
<g>
</g>
<g>
</g>
<g>
</g>
<g>
</g>
<g>
</g>
<g>
</g>
<g>
</g>
<g>
</g>
<g>
</g>
</svg>
